<svg width="83" height="100" viewBox="0 0 83 100" fill="none" xmlns="http://www.w3.org/2000/svg">
<g clip-path="url(#clip0_7_151)">
<path d="M74.494 79.2748L29.6364 92.542C28.2659 92.9476 26.9524 91.7623 27.2405 90.3793L43.2655 13.6348C43.5653 12.1988 45.5491 11.9717 46.1749 13.3008L75.8463 76.3076C76.4059 77.4971 75.7674 78.8988 74.4938 79.275L74.494 79.2748ZM82.1862 76.1443L47.8311 3.18866C45.5663 -1.04786 40.2069 -0.89415 38.1131 2.65155L0.852986 63.0014C-0.301311 64.8832 -0.27846 67.2025 0.918611 69.06L19.1321 97.2746C21.01 99.5135 22.7465 100.57 25.7126 99.6922L78.5807 84.0558C82.1028 83.0012 83.8001 79.5982 82.1862 76.1443Z" fill="#4C51BF"/>
</g>
<defs>
<clipPath id="clip0_7_151">
<rect width="82.82" height="100" fill="white"/>
</clipPath>
</defs>
</svg>
